<?xml version="1.0" standalone="no"?>
<!DOCTYPE svg PUBLIC "-//W3C//DTD SVG 20010904//EN"
 "http://www.w3.org/TR/2001/REC-SVG-20010904/DTD/svg10.dtd">
<svg version="1.0" xmlns="http://www.w3.org/2000/svg"
 width="503.000000pt" height="502.000000pt" viewBox="0 0 503.000000 502.000000"
 preserveAspectRatio="xMidYMid meet">

<g transform="translate(0.000000,502.000000) scale(0.100000,-0.100000)"
fill="#C51C28" stroke="none">
<path d="M4151 4894 c-27 -30 -31 -42 -31 -92 0 -76 -16 -129 -53 -175 -30
-38 -30 -42 -38 -190 -9 -167 -18 -197 -59 -197 -46 0 -132 31 -169 60 -20 16
-55 35 -78 42 -28 9 -50 26 -65 49 -19 27 -31 35 -61 37 -21 2 -86 27 -145 57
-59 29 -125 58 -147 64 -22 6 -59 22 -83 36 -24 13 -93 39 -155 56 -62 18
-123 40 -136 50 -13 11 -33 19 -45 19 -11 0 -58 7 -102 17 -77 16 -84 16 -137
-1 -31 -10 -83 -35 -115 -57 -37 -25 -79 -43 -117 -51 -33 -6 -62 -14 -65 -18
-6 -8 -47 -31 -100 -56 -19 -9 -45 -25 -59 -35 -13 -10 -39 -19 -58 -19 -47 0
-184 -29 -208 -44 -32 -20 -194 -76 -220 -76 -13 0 -27 -4 -30 -10 -3 -5 -46
-10 -95 -10 -85 0 -89 1 -112 29 -14 16 -35 32 -48 36 -14 4 -33 18 -43 31
-10 13 -28 29 -41 36 -48 27 -111 80 -124 105 -10 19 -12 48 -7 113 6 70 4 93
-9 118 -17 33 -43 52 -71 52 -25 0 -84 -49 -102 -84 -18 -36 -81 -120 -116
-156 -13 -14 -27 -32 -31 -40 -3 -8 -17 -35 -31 -59 -24 -43 -34 -119 -18
-135 18 -18 40 -112 32 -134 -15 -40 -10 -67 27 -142 20 -40 40 -87 44 -104 8
-30 44 -124 61 -158 11 -22 12 -161 1 -173 -24 -28 -33 -158 -35 -485 l-2
-345 28 -57 c15 -31 27 -61 27 -66 0 -5 7 -23 16 -41 9 -18 18 -58 21 -89 4
-50 1 -62 -24 -99 -28 -41 -126 -133 -161 -152 -9 -5 -36 -12 -59 -16 -50 -8
-54 -2 -72 101 -11 66 -15 72 -39 77 -15 3 -48 22 -72 41 -25 20 -63 41 -85
47 -22 6 -68 24 -102 40 -34 16 -68 29 -76 29 -17 0 -49 35 -74 80 -22 39 -44
48 -124 49 -76 1 -92 -12 -78 -64 6 -22 14 -44 19 -50 15 -20 49 -152 60 -234
6 -46 15 -91 20 -100 5 -9 16 -50 25 -91 22 -108 41 -175 58 -202 8 -12 20
-49 27 -80 12 -60 43 -134 59 -140 9 -3 15 -24 43 -140 4 -20 24 -55 43 -78
19 -23 35 -47 35 -54 0 -7 12 -28 26 -47 32 -42 64 -112 64 -137 0 -24 16 -37
54 -46 15 -4 30 -15 33 -25 3 -10 18 -28 33 -40 29 -21 60 -97 60 -147 0 -12
15 -39 34 -60 19 -22 47 -54 61 -71 35 -43 57 -42 92 4 l28 36 1 196 c1 212 9
251 59 318 44 56 156 69 175 19 4 -12 20 -46 34 -76 14 -29 26 -61 26 -69 1
-9 8 -34 16 -56 8 -22 19 -76 24 -119 6 -53 16 -89 29 -107 25 -34 49 -92 62
-148 5 -24 25 -67 44 -96 19 -29 35 -59 35 -69 0 -9 18 -34 40 -57 21 -22 42
-50 45 -62 17 -60 36 -86 70 -97 19 -6 41 -23 48 -36 7 -14 25 -33 40 -43 15
-9 77 -65 139 -124 107 -100 172 -145 289 -198 31 -15 49 -31 59 -53 21 -50
50 -76 85 -76 82 0 101 107 30 174 -19 18 -35 39 -35 45 0 6 -11 16 -25 21
-31 12 -41 36 -55 142 -16 122 -19 128 -46 128 -27 0 -39 19 -48 80 -4 24 -10
47 -15 50 -4 3 -22 39 -40 80 -45 100 -47 107 -61 170 -18 81 -49 193 -59 211
-5 9 -12 41 -16 71 -6 50 -11 58 -44 80 l-36 23 0 130 c0 128 0 131 -32 187
-25 43 -33 70 -33 106 0 26 -6 54 -12 60 -16 16 -15 193 0 225 19 40 34 298
31 522 -3 236 8 348 40 421 23 50 182 220 249 264 25 17 56 30 69 30 13 0 34
13 50 30 14 17 33 30 41 30 19 0 97 36 135 62 15 11 55 28 90 38 34 10 83 30
110 44 39 21 74 28 193 41 86 9 152 12 162 6 9 -4 67 -11 127 -14 117 -6 153
-18 195 -62 13 -14 28 -25 33 -25 5 0 23 -6 40 -14 18 -8 57 -22 87 -32 44
-14 69 -33 125 -90 39 -39 80 -73 90 -75 14 -3 26 -21 38 -59 16 -46 27 -60
68 -88 60 -39 107 -103 115 -154 4 -21 11 -41 15 -44 14 -9 10 -77 -7 -99 -24
-32 -11 -94 42 -197 13 -25 27 -67 30 -92 4 -26 11 -49 15 -52 12 -7 12 -151
0 -158 -5 -3 -12 -17 -15 -32 -4 -14 -18 -43 -31 -65 -14 -21 -25 -52 -25 -68
0 -16 -4 -33 -10 -36 -5 -3 -10 -32 -10 -63 -1 -129 -40 -325 -81 -401 -10
-20 -19 -41 -19 -48 0 -6 -16 -33 -36 -58 -28 -37 -37 -59 -41 -104 -6 -60
-25 -91 -55 -91 -30 0 -54 -17 -75 -52 -11 -19 -38 -42 -61 -53 -23 -11 -42
-24 -42 -28 0 -4 -9 -20 -20 -35 -27 -37 -39 -141 -40 -349 0 -109 -4 -173
-10 -173 -6 0 -10 -30 -10 -69 0 -39 5 -73 10 -76 6 -3 10 -36 11 -73 1 -37 6
-96 13 -131 13 -76 32 -94 73 -71 30 17 29 16 82 129 22 46 53 98 70 115 24
25 33 45 38 85 6 56 23 81 54 81 14 0 19 7 19 30 0 22 12 42 46 77 26 27 55
64 65 84 11 19 32 45 48 57 17 13 31 34 35 54 3 20 27 59 56 93 28 33 50 63
50 68 0 5 11 18 25 29 14 11 25 25 25 32 0 7 25 40 55 73 30 34 55 66 55 72 0
5 17 24 39 41 34 28 39 37 44 90 6 51 49 149 76 170 23 18 33 49 45 142 l14
104 52 54 52 53 26 -27 c24 -24 27 -33 27 -99 -1 -61 -6 -82 -33 -136 -42 -84
-46 -165 -8 -182 22 -10 30 -7 73 26 99 79 132 125 157 224 9 34 25 76 36 91
11 15 20 31 20 35 0 3 13 25 29 48 28 41 73 173 86 252 4 22 10 45 14 50 19
24 28 165 23 355 -6 263 -6 298 -2 397 2 64 -1 88 -14 108 -31 47 -57 34 -141
-69 -42 -52 -82 -96 -89 -99 -7 -3 -30 -30 -50 -61 -24 -37 -49 -61 -72 -71
-36 -15 -37 -16 -54 -84 -24 -94 -127 -149 -141 -76 -3 17 -3 178 -1 359 4
225 1 380 -8 489 l-13 159 -34 33 c-18 17 -33 35 -33 39 0 4 -14 38 -31 74
-17 37 -38 85 -46 107 -9 22 -20 44 -25 50 -4 5 -8 32 -8 60 0 45 3 53 25 65
14 7 25 16 25 20 0 4 10 18 23 32 13 14 28 45 33 69 7 34 14 45 31 47 46 7 48
19 48 298 l0 263 -30 31 c-30 31 -93 72 -139 89 -22 9 -29 6 -55 -25z"/>
<path d="M2532 3153 c-13 -2 -26 -11 -29 -19 -3 -8 -9 -14 -13 -14 -5 0 -43
-23 -85 -51 -42 -27 -102 -58 -133 -67 -49 -15 -58 -23 -76 -59 -12 -23 -29
-50 -39 -60 -9 -11 -17 -25 -17 -33 0 -7 -7 -18 -16 -25 -21 -15 -33 -124 -23
-207 5 -42 16 -72 36 -102 16 -22 38 -61 47 -86 22 -56 43 -80 69 -80 38 0
152 -32 201 -57 69 -34 159 -50 312 -58 130 -6 132 -6 162 20 16 14 39 25 51
25 12 0 21 4 21 9 0 5 16 19 36 32 20 12 56 39 79 59 24 21 66 46 94 56 28 10
51 22 51 26 0 4 6 8 14 8 7 0 43 28 80 63 58 54 66 67 66 98 0 25 -9 48 -30
74 -16 20 -32 44 -35 53 -3 10 -23 28 -45 41 -22 14 -42 33 -45 42 -3 10 -21
29 -39 43 -46 35 -225 126 -247 126 -10 0 -33 13 -51 29 -21 18 -50 31 -80 35
-31 5 -62 19 -94 43 -44 34 -53 37 -123 39 -42 1 -86 0 -99 -3z"/>
</g>
</svg>
