<?xml version="1.0" standalone="no"?>
<!DOCTYPE svg PUBLIC "-//W3C//DTD SVG 20010904//EN"
 "http://www.w3.org/TR/2001/REC-SVG-20010904/DTD/svg10.dtd">
<svg version="1.0" xmlns="http://www.w3.org/2000/svg"
 width="503.000000pt" height="502.000000pt" viewBox="0 0 503.000000 502.000000"
 preserveAspectRatio="xMidYMid meet">

<g transform="translate(0.000000,502.000000) scale(0.100000,-0.100000)"
fill="#21A4EB" stroke="none">
<path d="M2267 4931 c-53 -26 -104 -57 -113 -69 -8 -12 -18 -47 -21 -77 -5
-51 -4 -56 31 -96 36 -43 47 -83 24 -92 -7 -2 -32 -1 -55 2 -36 5 -50 14 -83
55 -22 26 -40 52 -40 57 0 4 -16 20 -34 34 -32 24 -37 25 -62 13 -38 -18 -67
-105 -59 -170 6 -42 2 -57 -39 -140 -72 -149 -85 -238 -33 -238 41 0 115 28
163 63 70 49 87 56 150 68 63 12 60 10 260 143 185 124 305 238 327 312 14 46
14 50 -6 72 -11 12 -26 22 -32 22 -6 0 -50 20 -97 45 -115 60 -149 60 -281 -4z
m179 -104 c49 -43 26 -127 -34 -127 -38 0 -62 27 -62 70 0 38 14 64 40 73 25
9 28 8 56 -16z"/>
<path d="M2795 4713 c-27 -25 -65 -52 -82 -60 -18 -7 -33 -17 -33 -22 0 -11
-40 -26 -105 -41 -34 -7 -78 -30 -131 -68 -43 -31 -112 -77 -151 -102 -77 -49
-117 -98 -134 -167 -17 -64 -35 -75 -140 -84 -78 -6 -102 -13 -163 -44 -39
-21 -83 -48 -98 -61 -15 -12 -52 -30 -82 -38 -30 -9 -58 -21 -61 -27 -10 -16
-52 -29 -139 -45 -91 -16 -146 -32 -146 -43 0 -4 -30 -27 -67 -52 -38 -24 -86
-61 -109 -81 -23 -21 -66 -49 -97 -63 -38 -16 -61 -34 -71 -54 -9 -16 -29 -43
-46 -59 -47 -48 -40 -68 34 -101 27 -11 57 -21 68 -21 56 0 198 -103 198 -144
0 -7 9 -20 21 -27 22 -15 31 -46 60 -214 54 -309 53 -288 53 -865 1 -598 0
-607 -60 -696 -15 -21 -33 -58 -41 -82 -9 -23 -25 -50 -37 -58 -11 -8 -45 -33
-74 -54 -29 -21 -76 -50 -106 -64 -54 -25 -66 -42 -66 -94 0 -37 31 -58 96
-65 33 -3 76 -13 95 -21 19 -8 80 -17 134 -21 60 -4 118 -14 145 -25 25 -10
83 -21 130 -25 116 -10 235 -37 387 -88 148 -50 293 -104 300 -111 13 -12 26
-91 33 -191 5 -70 16 -132 29 -170 17 -46 23 -93 28 -205 l5 -145 39 -37 c45
-44 49 -45 80 -19 24 19 24 19 25 263 0 133 4 259 8 278 18 82 55 98 138 61
24 -10 54 -24 68 -30 14 -6 39 -20 55 -31 17 -11 49 -29 73 -41 23 -11 42 -23
42 -27 0 -4 15 -16 33 -28 77 -50 207 -137 260 -174 71 -50 102 -48 117 9 24
92 40 190 46 284 4 57 12 109 19 117 7 8 15 57 19 109 4 52 13 121 21 155 7
33 18 103 24 153 6 51 15 103 20 115 4 13 9 139 10 280 2 301 -5 330 -75 352
-17 5 -24 -2 -42 -41 -12 -27 -29 -93 -37 -147 -16 -105 -86 -285 -130 -336
-12 -14 -37 -47 -54 -73 -20 -30 -53 -60 -87 -80 -109 -64 -124 -74 -146 -95
-29 -26 -94 -41 -181 -42 -58 0 -71 3 -91 23 -29 29 -33 63 -41 302 -3 99 -8
257 -11 350 -3 94 -1 274 6 400 6 127 11 356 11 510 1 385 12 602 33 640 9 17
16 39 16 50 0 11 7 31 16 43 8 12 19 61 24 111 10 88 38 181 66 212 8 8 14 20
14 24 0 10 25 37 75 83 16 15 45 43 65 62 19 19 52 46 73 60 21 15 55 48 77
74 31 37 38 52 30 65 -19 36 -44 46 -175 73 -79 16 -128 36 -173 69 -47 34
-51 50 -22 79 17 17 33 20 102 20 61 0 86 -4 99 -16 10 -9 39 -19 64 -22 53
-5 85 15 85 55 0 31 -72 173 -110 216 -26 30 -30 42 -30 95 0 52 -3 63 -22 76
-34 24 -48 19 -103 -31z m-630 -1125 c22 -19 28 -38 39 -113 18 -117 26 -147
43 -166 14 -16 17 -67 37 -554 2 -55 11 -145 20 -200 18 -114 21 -458 5 -590
-5 -44 -13 -224 -18 -400 -4 -176 -12 -328 -16 -339 -6 -15 -16 -17 -46 -13
-41 5 -95 40 -181 115 -32 28 -66 53 -75 56 -10 3 -27 21 -37 41 -10 19 -53
67 -96 108 -100 96 -121 139 -130 271 -5 65 -14 115 -26 141 -17 36 -19 72
-22 350 -4 298 -2 335 30 555 6 41 13 156 17 255 5 147 10 185 24 205 9 13 17
32 17 41 0 30 38 66 155 145 186 126 210 135 260 92z"/>
<path d="M3489 4307 c-14 -12 -42 -44 -61 -72 -20 -27 -57 -69 -82 -92 -25
-23 -53 -57 -62 -75 -22 -43 -22 -103 1 -128 10 -11 15 -23 12 -26 -11 -12
-37 5 -47 30 -5 14 -18 30 -30 36 -11 6 -20 19 -20 29 0 10 -7 24 -16 32 -24
19 -76 -12 -159 -97 -38 -40 -80 -75 -92 -79 -34 -9 -183 -173 -183 -200 0
-29 40 -59 100 -75 49 -13 126 -70 142 -105 18 -40 -6 -150 -41 -191 -29 -33
-31 -39 -31 -119 0 -46 3 -90 6 -99 6 -17 31 -21 59 -10 24 9 85 94 85 117 0
11 7 29 17 39 9 10 21 28 27 41 6 12 29 31 51 42 22 12 52 29 67 39 30 20 56
12 82 -26 18 -25 21 -90 6 -118 -6 -11 -42 -36 -80 -56 -96 -50 -143 -108
-107 -131 6 -4 62 -6 124 -5 102 3 113 2 132 -17 58 -58 -12 -161 -108 -161
-35 0 -49 7 -96 50 -75 68 -127 79 -151 31 -23 -44 2 -81 135 -205 29 -27 57
-59 61 -72 14 -35 -5 -84 -53 -134 -48 -50 -107 -124 -107 -135 0 -3 -12 -22
-26 -41 -32 -42 -20 -64 35 -64 32 0 133 44 165 72 6 5 36 31 66 59 30 27 58
49 62 49 4 0 24 11 44 25 51 35 117 35 140 0 9 -14 21 -25 27 -25 6 0 41 -18
78 -40 76 -45 123 -51 160 -21 22 17 22 21 9 45 -7 15 -37 42 -65 61 -59 39
-116 104 -139 158 -9 23 -22 37 -33 37 -16 0 -16 2 3 18 24 19 56 86 84 177
13 42 19 87 18 150 -3 134 7 150 126 208 53 25 127 55 166 67 55 16 75 28 99
58 17 20 31 48 31 63 0 22 -6 28 -31 33 -63 12 -159 6 -216 -14 -72 -25 -155
-27 -179 -3 -20 21 -64 111 -64 134 0 8 -11 30 -25 49 -13 18 -32 56 -41 84
-9 28 -34 72 -56 98 -21 26 -45 63 -54 83 -13 32 -13 38 6 72 11 21 20 49 20
63 0 27 34 90 55 102 22 13 38 119 26 166 -13 48 -32 53 -72 19z"/>
</g>
</svg>
