<?xml version="1.0" standalone="no"?>
<!DOCTYPE svg PUBLIC "-//W3C//DTD SVG 20010904//EN"
 "http://www.w3.org/TR/2001/REC-SVG-20010904/DTD/svg10.dtd">
<svg version="1.0" xmlns="http://www.w3.org/2000/svg"
 width="503.000000pt" height="502.000000pt" viewBox="0 0 503.000000 502.000000"
 preserveAspectRatio="xMidYMid meet">

<g transform="translate(0.000000,502.000000) scale(0.100000,-0.100000)"
fill="#05953B" stroke="none">
<path d="M1865 4910 c-3 -5 -19 -10 -35 -10 -41 0 -120 -19 -150 -37 -14 -8
-37 -19 -52 -24 -16 -6 -28 -14 -28 -19 0 -4 -27 -13 -60 -20 -33 -7 -60 -16
-60 -21 0 -4 -10 -10 -22 -14 -61 -17 -120 -49 -133 -72 -15 -27 -38 -42 -61
-43 -12 0 -24 -6 -27 -13 -3 -7 -23 -19 -46 -27 -23 -7 -41 -17 -41 -22 0 -4
-6 -8 -13 -8 -8 0 -25 -12 -40 -27 -14 -16 -47 -44 -74 -63 -65 -47 -71 -52
-94 -72 -10 -10 -23 -18 -27 -18 -17 0 -211 -191 -224 -220 -7 -17 -16 -30
-20 -30 -5 0 -8 -6 -8 -14 0 -8 -20 -24 -45 -36 -63 -31 -90 -71 -105 -157
-12 -65 -16 -73 -36 -73 -30 0 -79 -64 -101 -129 -9 -28 -19 -51 -23 -51 -4 0
-13 -18 -20 -40 -7 -22 -19 -45 -27 -51 -7 -6 -13 -17 -13 -24 0 -7 -7 -18
-15 -25 -29 -24 -74 -134 -81 -197 -4 -36 -11 -63 -18 -63 -6 0 -23 -10 -37
-23 -26 -22 -27 -26 -43 -232 -13 -164 -14 -248 -7 -385 7 -121 6 -180 -1
-194 -13 -24 -4 -291 13 -382 6 -33 21 -73 35 -91 13 -17 24 -36 24 -42 0 -6
6 -11 14 -11 10 0 15 -24 21 -95 4 -52 11 -97 16 -101 5 -3 9 -21 9 -40 0 -25
8 -41 29 -59 25 -23 29 -35 33 -93 4 -55 14 -83 52 -157 26 -49 53 -94 60
-100 7 -5 15 -18 19 -28 4 -10 17 -17 34 -17 15 0 33 -4 38 -8 6 -4 16 -42 22
-86 11 -77 12 -80 63 -127 29 -27 57 -49 61 -49 5 0 14 -10 20 -22 7 -13 18
-27 25 -31 8 -4 14 -14 14 -22 0 -31 24 -63 56 -75 19 -8 34 -21 34 -30 0 -22
70 -93 133 -135 67 -45 98 -69 166 -127 31 -27 74 -57 96 -68 22 -11 47 -24
55 -29 8 -5 34 -14 58 -20 23 -7 42 -18 42 -25 0 -27 48 -56 120 -72 41 -9 77
-20 80 -24 3 -5 24 -13 48 -19 24 -7 45 -18 48 -25 3 -7 23 -19 45 -26 21 -7
39 -16 39 -20 0 -9 58 -28 110 -36 25 -4 50 -10 55 -14 17 -13 125 -30 192
-30 35 0 63 -4 63 -10 0 -16 237 -13 244 3 5 9 7 9 12 0 4 -10 71 -13 283 -13
152 0 281 4 287 9 5 5 49 14 99 20 49 6 91 15 93 21 2 5 12 10 22 10 21 0 123
31 130 40 3 3 31 12 63 19 31 7 57 17 57 22 0 5 8 9 18 9 9 0 26 7 36 15 11 8
27 15 37 15 9 0 19 6 22 13 3 7 23 19 46 27 23 7 41 16 41 20 0 4 22 12 50 18
57 13 117 49 123 74 3 9 17 20 32 24 37 9 115 53 115 65 0 5 5 9 11 9 6 0 36
23 67 51 32 28 67 55 80 60 12 5 22 13 22 19 0 5 7 10 15 10 13 0 88 69 140
128 6 7 26 27 45 46 70 68 130 133 130 141 0 4 31 38 69 76 67 65 70 69 76
126 3 32 10 66 15 75 6 10 10 25 10 33 0 8 9 15 21 15 21 0 79 56 79 76 0 6 9
19 19 28 10 10 22 33 26 52 3 19 12 37 20 40 8 3 17 27 21 52 4 28 16 57 29
72 13 14 27 42 30 63 4 20 11 37 16 37 5 0 16 25 24 55 9 30 20 55 25 55 7 0
40 120 40 144 0 16 -56 57 -90 66 -32 9 -46 8 -70 -5 -16 -8 -30 -20 -30 -25
0 -5 -6 -15 -13 -22 -7 -7 -21 -32 -31 -55 -11 -24 -22 -43 -26 -43 -4 0 -10
-9 -13 -19 -3 -11 -25 -34 -50 -52 -38 -26 -46 -38 -51 -74 -4 -23 -4 -49 0
-59 13 -34 -21 -53 -94 -53 -77 0 -92 -6 -150 -62 -25 -25 -55 -42 -76 -47
-20 -3 -36 -9 -36 -13 0 -8 -71 -41 -87 -41 -6 0 -13 -7 -17 -15 -3 -8 -10
-15 -16 -15 -5 0 -29 -13 -52 -30 -22 -16 -47 -30 -55 -30 -7 0 -13 -4 -13 -9
0 -5 -31 -17 -70 -27 -38 -10 -70 -22 -70 -26 0 -4 -10 -8 -22 -8 -26 -1 -50
-17 -65 -44 -10 -18 -24 -20 -139 -23 -90 -2 -130 -6 -135 -15 -11 -18 -611
-17 -617 0 -2 7 -22 12 -44 12 -38 0 -137 28 -148 41 -3 4 -25 12 -50 19 -25
7 -49 15 -55 19 -5 4 -32 16 -60 26 -27 10 -52 21 -55 25 -3 3 -21 12 -40 20
-19 7 -53 21 -75 31 -23 10 -53 21 -68 24 -15 4 -30 11 -33 16 -3 5 -20 9 -37
9 -33 0 -77 23 -77 41 0 13 -38 49 -52 49 -7 0 -23 11 -37 24 -16 16 -52 31
-95 41 -80 18 -96 28 -96 61 0 13 -4 24 -10 24 -5 0 -10 7 -10 15 0 24 -28 67
-77 119 -13 13 -23 28 -23 33 0 5 -10 23 -22 40 -74 99 -128 181 -128 192 0 5
-6 11 -13 14 -7 3 -19 23 -27 46 -7 23 -16 41 -19 41 -4 0 -13 21 -21 47 -7
26 -19 59 -27 73 -7 14 -13 32 -13 40 0 8 -9 26 -20 40 -11 14 -20 31 -20 38
0 6 -4 12 -10 12 -5 0 -10 10 -10 23 0 12 -7 30 -15 40 -13 18 -14 18 -25 -2
-6 -12 -15 -19 -19 -17 -13 8 -23 200 -27 491 -2 231 -5 271 -18 281 -21 15
-21 106 -1 137 16 25 34 135 35 210 0 43 2 47 25 47 28 0 50 28 60 80 4 19 11
37 14 40 4 3 16 37 26 75 10 39 22 73 27 76 5 3 9 34 9 67 0 34 4 62 8 62 4 0
16 17 27 38 10 20 37 55 60 77 22 22 47 57 54 78 8 20 18 37 22 37 4 0 8 5 8
10 0 32 145 209 183 223 9 3 17 10 17 15 0 6 26 22 58 38 31 16 85 48 119 71
35 24 68 43 73 43 6 0 15 11 20 25 5 14 14 25 19 25 18 0 109 79 116 101 9 27
-8 39 -57 39 -21 0 -38 5 -38 10 0 6 -58 10 -154 10 -93 0 -157 -4 -161 -10z"/>
</g>
</svg>
