<?xml version="1.0" standalone="no"?>
<!DOCTYPE svg PUBLIC "-//W3C//DTD SVG 20010904//EN"
 "http://www.w3.org/TR/2001/REC-SVG-20010904/DTD/svg10.dtd">
<svg version="1.0" xmlns="http://www.w3.org/2000/svg"
 width="503.000000pt" height="502.000000pt" viewBox="0 0 503.000000 502.000000"
 preserveAspectRatio="xMidYMid meet">

<g transform="translate(0.000000,502.000000) scale(0.100000,-0.100000)"
fill="#722F90" stroke="none">
<path d="M2331 4570 c-24 -17 -53 -30 -63 -30 -31 0 -54 -17 -68 -49 -9 -22
-21 -32 -45 -37 -17 -3 -55 -23 -83 -44 -60 -46 -194 -120 -217 -120 -8 0 -23
-8 -32 -18 -10 -11 -40 -42 -67 -71 -33 -35 -52 -48 -60 -42 -6 5 -33 16 -61
24 -41 11 -52 19 -59 43 -27 89 -25 87 -75 80 -25 -3 -64 -15 -86 -26 -63 -30
-105 -22 -105 19 0 21 -130 138 -200 181 -67 41 -132 49 -209 26 -90 -26 -137
-60 -156 -109 -24 -65 -18 -100 21 -108 17 -3 37 -10 45 -15 8 -5 34 -14 59
-19 l45 -10 0 -60 0 -60 -49 -3 c-42 -3 -52 0 -70 21 -12 13 -49 47 -82 76
-51 43 -70 53 -112 58 -43 5 -60 1 -106 -22 -29 -15 -78 -47 -107 -71 -30 -24
-59 -44 -65 -44 -6 0 -28 -13 -49 -30 -20 -16 -45 -32 -55 -35 -11 -3 -29 -23
-41 -43 -13 -20 -33 -47 -46 -59 -24 -23 -27 -51 -28 -288 0 -33 -6 -91 -12
-130 -27 -156 -36 -277 -30 -387 7 -115 27 -242 45 -288 5 -14 13 -56 17 -95
3 -38 14 -81 23 -95 9 -14 24 -41 33 -60 9 -19 32 -55 51 -80 21 -28 42 -72
53 -113 10 -37 21 -67 26 -67 4 0 33 -25 66 -55 32 -30 61 -55 66 -55 4 0 7
-7 7 -15 0 -9 7 -18 16 -22 9 -3 27 -16 39 -29 13 -13 49 -35 81 -50 66 -30
111 -28 206 11 31 13 71 26 87 30 18 4 37 18 47 34 9 15 41 39 74 55 31 16 82
49 113 73 51 42 59 54 96 149 23 57 41 115 41 129 0 15 6 47 14 73 50 172 61
261 41 338 -17 66 -27 80 -60 87 -34 6 -71 -30 -85 -84 -15 -54 -61 -146 -106
-212 -19 -27 -37 -61 -40 -76 -10 -47 -13 -50 -48 -65 -19 -8 -40 -24 -46 -36
-10 -19 -17 -21 -53 -16 -22 4 -57 15 -76 26 -20 11 -53 26 -73 34 -20 8 -44
26 -53 40 -10 14 -57 67 -106 117 -72 74 -92 101 -104 143 -17 56 -13 125 11
210 9 32 14 98 14 183 0 99 4 143 16 171 8 20 19 58 24 83 14 74 57 135 111
158 39 17 71 20 215 22 244 2 314 -20 432 -138 35 -35 103 -94 151 -129 47
-36 93 -77 101 -92 9 -17 14 -55 15 -100 0 -71 -1 -73 -37 -105 -48 -43 -58
-65 -58 -134 1 -87 44 -304 63 -318 23 -17 33 -50 41 -134 4 -40 12 -85 17
-99 9 -22 14 -24 54 -20 26 3 63 18 91 37 76 50 136 38 154 -30 5 -19 14 -81
20 -139 5 -58 14 -123 20 -145 5 -22 10 -76 10 -119 0 -65 -4 -84 -19 -100
-14 -15 -22 -48 -31 -119 -13 -110 -4 -197 31 -301 21 -60 21 -62 3 -135 -10
-41 -25 -83 -34 -93 -13 -17 -15 -33 -8 -97 13 -126 29 -205 48 -231 9 -14 20
-36 24 -48 4 -13 21 -36 37 -53 35 -35 36 -52 7 -81 -21 -21 -21 -21 -1 -37
11 -9 24 -30 30 -46 7 -21 16 -29 29 -28 10 2 49 -4 87 -13 l67 -16 0 -58 c0
-31 4 -82 10 -111 12 -64 33 -85 138 -136 102 -50 135 -44 213 33 90 89 104
130 104 296 -1 75 3 134 7 132 4 -3 8 -30 8 -60 0 -50 2 -55 28 -65 38 -15
120 -15 134 -1 8 8 14 53 16 125 2 94 6 116 22 137 11 14 25 35 30 48 5 12 15
22 22 22 7 0 27 25 43 56 29 54 30 59 31 197 0 78 4 182 9 230 7 81 6 90 -13
117 -12 16 -26 48 -31 72 -6 24 -19 60 -29 80 -18 35 -19 59 -17 350 1 172 6
327 10 345 8 34 48 77 82 87 16 5 31 -2 60 -27 37 -32 114 -77 133 -77 19 0
79 62 89 93 6 18 24 39 41 49 22 12 30 24 30 45 0 25 30 146 66 265 26 88 13
143 -43 173 -35 19 -72 78 -73 115 0 8 -16 29 -36 46 -35 29 -37 34 -41 105
-6 93 -2 97 130 128 l98 23 22 44 c11 24 26 44 31 44 6 -1 71 30 144 67 l133
68 154 3 c151 4 155 3 177 -20 13 -12 40 -32 61 -42 45 -23 137 -111 137 -131
0 -7 9 -35 21 -62 11 -26 25 -86 30 -132 5 -47 15 -91 21 -98 15 -18 1 -289
-17 -323 -7 -14 -19 -41 -26 -60 -33 -89 -156 -250 -192 -250 -7 0 -44 -16
-80 -35 -80 -43 -118 -44 -162 -7 -17 15 -46 34 -62 43 -22 12 -35 31 -47 65
-10 27 -33 81 -52 120 -19 39 -34 76 -34 82 0 18 -91 102 -110 102 -42 0 -53
-48 -51 -220 1 -100 5 -140 16 -157 8 -12 15 -39 15 -58 0 -20 11 -69 24 -108
13 -40 27 -89 30 -109 4 -22 15 -42 26 -48 11 -6 41 -32 67 -58 47 -46 206
-140 285 -168 53 -18 94 -18 127 2 32 19 97 116 127 190 38 94 57 119 90 119
24 0 31 -6 40 -35 10 -30 16 -35 40 -33 90 6 130 34 159 113 30 78 30 112 0
174 -28 59 -28 84 -1 121 12 17 29 21 123 25 81 4 115 10 138 24 43 26 105
107 105 136 0 35 -19 98 -31 106 -6 4 -43 10 -81 14 -38 4 -75 13 -81 19 -9 9
-13 132 -15 435 l-3 423 -52 44 c-29 25 -97 71 -152 104 -55 32 -105 64 -111
71 -35 42 -212 144 -279 160 -16 4 -36 15 -43 25 -7 10 -31 23 -53 29 -22 6
-67 28 -102 48 -58 35 -67 37 -142 37 -90 -1 -116 -11 -189 -75 -26 -22 -65
-44 -89 -50 -23 -6 -53 -17 -67 -24 -14 -7 -59 -26 -100 -41 -41 -16 -93 -40
-115 -54 -30 -18 -57 -26 -106 -29 -62 -4 -68 -2 -100 26 -39 34 -144 92 -167
92 -9 0 -28 12 -43 26 -21 20 -43 28 -98 35 -88 11 -98 16 -191 98 -41 37 -86
75 -100 84 -36 25 -79 21 -129 -13z m363 -432 c14 -20 14 -23 1 -31 -9 -4 -28
-7 -43 -5 -21 2 -28 9 -30 31 -3 24 0 27 27 27 19 0 35 -8 45 -22z m259 -63
c-3 -13 -30 -18 -51 -10 -14 5 -14 7 -2 16 19 11 56 8 53 -6z m-628 -745 c11
-18 -14 -48 -46 -55 -24 -5 -34 -3 -41 9 -13 23 -9 30 26 42 41 15 54 16 61 4z
m720 -36 c16 -11 32 -38 47 -84 l22 -69 -25 -72 c-20 -61 -31 -78 -71 -110
-113 -89 -166 -141 -174 -171 -13 -44 -36 -56 -68 -34 -28 18 -35 31 -57 105
-7 23 -23 50 -35 58 -13 8 -26 27 -29 43 -5 24 0 36 32 70 21 23 59 52 85 66
30 15 54 36 64 57 9 17 37 55 62 82 68 76 101 89 147 59z m-1091 -113 c68 -65
91 -81 138 -95 71 -20 108 -61 107 -114 -1 -54 -12 -84 -34 -96 -11 -6 -48
-30 -82 -53 -34 -24 -69 -43 -78 -43 -44 0 -104 54 -214 196 -88 111 -97 165
-38 222 34 33 83 62 105 62 8 0 50 -35 96 -79z m510 -487 c25 -10 17 -36 -23
-71 -20 -18 -59 -55 -88 -82 -38 -36 -58 -48 -73 -44 -27 7 -25 19 7 61 14 19
32 51 38 71 18 52 88 85 139 65z m145 -119 c37 -36 31 -133 -9 -155 -17 -9
-23 -4 -44 38 -20 39 -32 102 -27 146 2 15 55 -4 80 -29z m226 -948 c3 -12 2
-63 -2 -112 l-8 -89 -34 -9 c-42 -10 -87 -57 -114 -117 -11 -24 -30 -53 -43
-63 -19 -15 -24 -28 -24 -67 0 -26 7 -64 15 -85 10 -22 15 -58 13 -88 -3 -49
-4 -52 -28 -49 -51 7 -92 3 -135 -13 -37 -15 -43 -21 -42 -43 1 -19 -4 -27
-17 -30 -16 -4 -18 0 -12 28 3 20 1 38 -6 47 -9 11 -7 17 10 29 15 10 22 26
22 47 0 52 64 167 125 223 14 13 25 33 25 45 0 12 8 44 18 72 13 38 24 53 48
63 32 14 56 42 69 83 13 42 89 151 106 151 5 0 11 -10 14 -23z m-435 -877 c0
-8 7 -28 15 -44 14 -27 20 -56 10 -56 -26 0 -56 28 -61 57 -8 42 12 95 27 72
5 -7 9 -21 9 -29z"/>
</g>
</svg>
